<?xml version="1.0" encoding="UTF-8" standalone="no"?>
<!DOCTYPE svg PUBLIC "-//W3C//DTD SVG 1.1//EN" "http://www.w3.org/Graphics/SVG/1.1/DTD/svg11.dtd">
<svg width="100%" height="100%" viewBox="0 0 500 500" version="1.1" xmlns="http://www.w3.org/2000/svg" xmlns:xlink="http://www.w3.org/1999/xlink" xml:space="preserve" xmlns:serif="http://www.serif.com/" style="fill-rule:evenodd;clip-rule:evenodd;stroke-linejoin:round;stroke-miterlimit:2;">
    <g transform="matrix(1.1939,0,0,1.19431,101.775,50.4221)">
        <path d="M0,0C0.976,-0.007 1.953,-0.013 2.959,-0.02C6.171,-0.04 9.383,-0.051 12.595,-0.061C13.696,-0.065 14.796,-0.069 15.93,-0.074C21.746,-0.094 27.563,-0.109 33.379,-0.118C39.384,-0.129 45.388,-0.164 51.393,-0.203C56.016,-0.229 60.639,-0.238 65.262,-0.241C67.476,-0.246 69.69,-0.258 71.904,-0.276C74.999,-0.301 78.093,-0.3 81.188,-0.293C82.099,-0.306 83.011,-0.319 83.951,-0.332C89.488,-0.286 92.639,0.485 97.029,4.177C102.97,10.388 104.588,15.849 104.404,24.294C103.571,30.695 100.927,35.383 96.277,39.778C90.842,43.547 84.661,42.884 78.287,42.849C76.928,42.859 75.57,42.872 74.211,42.886C71.341,42.913 68.471,42.924 65.601,42.924C61.143,42.923 56.685,42.958 52.227,43C46.419,43.052 40.61,43.093 34.802,43.125C26.279,43.175 17.758,43.275 9.238,43.503C7.361,43.55 5.485,43.58 3.608,43.61C-9.246,43.955 -20.386,46.029 -29.936,55.029C-42.538,68.403 -41.27,86.5 -41.246,103.676C-41.25,105.721 -41.255,107.766 -41.261,109.811C-41.274,115.332 -41.275,120.853 -41.273,126.373C-41.271,130.998 -41.276,135.622 -41.281,140.246C-41.292,151.164 -41.293,162.082 -41.287,173C-41.281,184.229 -41.293,195.457 -41.314,206.686C-41.332,216.358 -41.338,226.031 -41.335,235.703C-41.333,241.466 -41.335,247.229 -41.349,252.992C-41.362,258.415 -41.36,263.838 -41.347,269.261C-41.345,271.239 -41.347,273.218 -41.355,275.196C-41.601,299.256 -41.601,299.256 -30.971,320.177C-21.135,330.087 -8.81,332.257 4.622,332.315C5.794,332.313 5.794,332.313 6.99,332.311C7.845,332.313 8.7,332.315 9.582,332.318C12.423,332.324 15.264,332.323 18.106,332.322C20.154,332.325 22.201,332.329 24.249,332.332C29.794,332.341 35.34,332.344 40.886,332.344C44.356,332.345 47.826,332.347 51.296,332.35C63.418,332.359 75.539,332.363 87.661,332.362C98.934,332.362 110.208,332.372 121.482,332.388C131.182,332.401 140.881,332.406 150.581,332.406C156.365,332.406 162.149,332.408 167.933,332.419C173.377,332.429 178.821,332.429 184.266,332.422C186.255,332.42 188.244,332.423 190.232,332.429C214.476,332.979 214.476,332.979 235.345,322.064C244.95,311.823 247.32,300.924 247.329,287.173C247.337,286.228 247.346,285.284 247.355,284.311C247.372,282.279 247.386,280.247 247.397,278.215C247.416,274.994 247.451,271.774 247.491,268.553C247.605,259.403 247.708,250.252 247.756,241.101C247.787,235.487 247.852,229.874 247.938,224.26C247.965,222.129 247.979,219.998 247.98,217.866C247.982,214.884 248.028,211.905 248.083,208.923C248.073,208.051 248.063,207.179 248.053,206.28C248.228,200.191 250.057,197.138 254.269,192.774C259.789,187.767 265.122,186.797 272.369,186.904C278.66,187.55 283.378,190.068 287.529,194.802C290.069,198.033 291.153,200.08 291.169,204.213C291.175,205.058 291.181,205.903 291.187,206.774C291.188,207.703 291.189,208.632 291.19,209.589C291.195,210.567 291.2,211.545 291.205,212.552C291.22,215.803 291.227,219.055 291.232,222.306C291.238,224.572 291.244,226.837 291.249,229.103C291.26,233.869 291.266,238.635 291.269,243.4C291.275,249.466 291.299,255.531 291.327,261.596C291.346,266.286 291.351,270.977 291.353,275.667C291.356,277.9 291.364,280.133 291.377,282.366C291.529,310.078 286.998,332.046 267.521,352.837C245.152,373.839 217.557,376.331 188.308,376.322C186.227,376.325 184.146,376.329 182.065,376.332C176.441,376.341 170.817,376.344 165.192,376.344C161.67,376.345 158.147,376.347 154.624,376.35C142.31,376.359 129.996,376.363 117.682,376.362C106.244,376.362 94.806,376.372 83.368,376.388C73.515,376.401 63.661,376.406 53.808,376.406C47.938,376.406 42.067,376.408 36.197,376.419C30.67,376.429 25.143,376.429 19.615,376.422C17.601,376.42 15.586,376.423 13.572,376.429C4.057,376.456 -5.359,376.318 -14.826,375.295C-15.537,375.218 -16.247,375.142 -16.98,375.063C-34.373,372.943 -48.697,364.389 -60.971,352.177C-61.73,351.453 -62.489,350.728 -63.272,349.982C-83.893,328.969 -85.291,300.412 -85.23,272.683C-85.232,270.591 -85.236,268.5 -85.24,266.408C-85.249,260.782 -85.246,255.156 -85.24,249.53C-85.234,243.609 -85.239,237.687 -85.242,231.766C-85.246,221.827 -85.241,211.889 -85.232,201.95C-85.221,190.502 -85.224,179.053 -85.235,167.605C-85.244,157.73 -85.246,147.855 -85.24,137.981C-85.237,132.103 -85.237,126.225 -85.244,120.347C-85.249,114.818 -85.245,109.289 -85.234,103.76C-85.231,101.745 -85.232,99.731 -85.236,97.716C-85.294,68.778 -81.912,45.11 -61.291,23.376C-44.583,7.539 -22.755,0.067 0,0Z" style="fill:white;fill-rule:nonzero;"/>
    </g>
    <g transform="matrix(1.1939,0,0,1.19431,323.637,0.160971)">
        <path d="M0,0C1.739,-0.011 1.739,-0.011 3.513,-0.021C4.776,-0.019 6.039,-0.017 7.34,-0.014C8.691,-0.018 10.042,-0.023 11.392,-0.029C15.053,-0.043 18.714,-0.043 22.376,-0.041C25.435,-0.04 28.494,-0.045 31.553,-0.049C38.771,-0.061 45.989,-0.061 53.208,-0.055C60.648,-0.049 68.089,-0.061 75.53,-0.083C81.924,-0.1 88.318,-0.106 94.712,-0.103C98.529,-0.101 102.345,-0.104 106.161,-0.118C109.751,-0.13 113.34,-0.128 116.93,-0.115C118.87,-0.112 120.811,-0.123 122.751,-0.135C129.821,-0.092 134.587,0.351 140.247,4.909C140.809,5.479 141.371,6.049 141.95,6.636C142.522,7.2 143.095,7.765 143.684,8.347C146.815,12.3 147.451,16.097 147.468,21.047C147.48,22.782 147.48,22.782 147.493,24.552C147.492,26.441 147.492,26.441 147.491,28.369C147.497,29.717 147.503,31.064 147.511,32.411C147.529,36.064 147.533,39.717 147.535,43.37C147.536,45.655 147.54,47.94 147.546,50.225C147.564,58.203 147.572,66.18 147.571,74.158C147.569,81.583 147.591,89.008 147.622,96.433C147.648,102.817 147.659,109.201 147.658,115.585C147.657,119.394 147.663,123.202 147.684,127.011C147.704,130.595 147.704,134.179 147.689,137.764C147.686,139.697 147.703,141.63 147.72,143.563C147.666,151.077 147.146,157.032 141.788,162.774C135.789,168.129 130.199,168.714 122.431,168.573C116.439,167.994 112.317,165.788 108.325,161.323C104.684,156.076 103.9,151.841 103.881,145.533C103.866,144.391 103.866,144.391 103.851,143.225C103.82,140.72 103.803,138.215 103.786,135.71C103.767,133.968 103.748,132.227 103.727,130.485C103.676,125.91 103.636,121.335 103.599,116.76C103.559,112.087 103.508,107.415 103.458,102.743C103.361,93.582 103.277,84.422 103.2,75.261C102.523,75.939 101.847,76.618 101.15,77.317C84.697,93.813 68.239,110.304 51.775,126.789C43.814,134.761 35.854,142.735 27.898,150.713C20.966,157.666 14.029,164.615 7.089,171.56C3.413,175.239 -0.261,178.919 -3.931,182.603C-7.384,186.07 -10.841,189.531 -14.302,192.989C-15.573,194.261 -16.842,195.534 -18.11,196.809C-19.838,198.547 -21.572,200.279 -23.308,202.009C-23.81,202.517 -24.312,203.025 -24.829,203.548C-30.651,209.321 -35.428,209.789 -43.361,209.837C-47.976,209.706 -50.989,209.25 -54.612,206.136C-56.257,204.378 -56.257,204.378 -57.8,202.261C-58.513,201.353 -59.226,200.446 -59.96,199.511C-62.113,195.707 -62.466,192.648 -62.425,188.386C-62.457,187.717 -62.489,187.048 -62.523,186.358C-62.54,177.065 -54.737,170.985 -48.611,164.821C-46.866,163.078 -45.118,161.34 -43.369,159.602C-42.106,158.341 -40.844,157.078 -39.583,155.816C-36.175,152.407 -32.76,149.004 -29.345,145.603C-25.77,142.04 -22.2,138.472 -18.63,134.904C-11.877,128.157 -5.119,121.416 1.641,114.676C9.34,106.999 17.034,99.316 24.727,91.633C40.545,75.836 56.37,60.046 72.2,44.261C71.241,44.257 70.281,44.253 69.293,44.25C60.23,44.213 51.167,44.155 42.105,44.077C37.446,44.037 32.788,44.005 28.129,43.99C23.629,43.975 19.129,43.94 14.629,43.892C12.917,43.878 11.204,43.87 9.491,43.869C-8.934,43.851 -8.934,43.851 -15.296,37.849C-20.686,31.884 -21.253,26.246 -21.112,18.491C-20.533,12.499 -18.328,8.378 -13.862,4.386C-9.203,1.153 -5.662,0.012 0,0Z" style="fill:white;fill-rule:nonzero;"/>
    </g>
</svg>
